<?xml version="1.0" encoding="utf-8"?>
<!-- Generator: Adobe Illustrator 16.0.0, SVG Export Plug-In . SVG Version: 6.00 Build 0)  -->
<!DOCTYPE svg PUBLIC "-//W3C//DTD SVG 1.1//EN" "http://www.w3.org/Graphics/SVG/1.1/DTD/svg11.dtd">
<svg version="1.1" xmlns="http://www.w3.org/2000/svg" xmlns:xlink="http://www.w3.org/1999/xlink" x="0px" y="0px" width="54px"
	 height="54px" viewBox="0 0 54 54" enable-background="new 0 0 54 54" xml:space="preserve">
<g id="Layer_4">
</g>
<g id="Layer_1" display="none">
</g>
<g id="Layer_2" display="none">
</g>
<g id="Layer_3">
	<path fill="#FFFFFF" d="M49.587,15.557c-1.577,0.698-3.272,1.171-5.05,1.385c1.815-1.089,3.212-2.813,3.864-4.867
		c-1.697,1.009-3.579,1.74-5.584,2.136c-1.604-1.711-3.888-2.779-6.418-2.779c-4.86,0-8.798,3.938-8.798,8.795
		c0,0.69,0.077,1.362,0.229,2.005c-7.311-0.367-13.793-3.869-18.13-9.189c-0.758,1.297-1.192,2.808-1.192,4.421
		c0,3.051,1.554,5.744,3.912,7.32c-1.439-0.047-2.797-0.441-3.982-1.101c0,0.038,0,0.076,0,0.11c0,4.265,3.032,7.817,7.055,8.625
		c-0.737,0.203-1.515,0.309-2.316,0.309c-0.565,0-1.118-0.055-1.655-0.157c1.119,3.495,4.367,6.041,8.217,6.109
		c-3.012,2.36-6.803,3.766-10.925,3.766c-0.709,0-1.409-0.041-2.098-0.124c3.892,2.496,8.518,3.953,13.482,3.953
		c16.179,0,25.025-13.402,25.025-25.027c0-0.381-0.007-0.761-0.023-1.139C46.919,18.869,48.406,17.321,49.587,15.557z"/>
</g>
</svg>
