<?xml version="1.0" encoding="utf-8"?>
<!-- Generator: Adobe Illustrator 16.0.0, SVG Export Plug-In . SVG Version: 6.00 Build 0)  -->
<!DOCTYPE svg PUBLIC "-//W3C//DTD SVG 1.1//EN" "http://www.w3.org/Graphics/SVG/1.1/DTD/svg11.dtd">
<svg version="1.1" xmlns="http://www.w3.org/2000/svg" xmlns:xlink="http://www.w3.org/1999/xlink" x="0px" y="0px" width="54px"
	 height="54px" viewBox="0 0 54 54" enable-background="new 0 0 54 54" xml:space="preserve">
<g id="Layer_4">
</g>
<g id="Layer_1" display="none">
</g>
<g id="Layer_2" display="none">
</g>
<g id="Layer_3">
	<g>
		<path fill="#FFFFFF" d="M18.396,14.653c0,2.081-1.533,3.763-4.058,3.763c-2.378,0-3.91-1.682-3.91-3.763
			c0-2.128,1.582-3.762,4.009-3.762C16.862,10.891,18.349,12.525,18.396,14.653z M10.623,45.599V21.387h7.524v24.212H10.623z"/>
		<path fill="#FFFFFF" d="M22.652,29.11c0-3.019-0.099-5.542-0.196-7.723h6.535l0.348,3.368h0.147
			c0.991-1.584,3.416-3.913,7.477-3.913c4.95,0,8.663,3.318,8.663,10.448v14.309h-7.524V32.183c0-3.122-1.091-5.249-3.812-5.249
			c-2.08,0-3.317,1.435-3.863,2.821c-0.198,0.496-0.247,1.188-0.247,1.88v13.964h-7.526V29.11z"/>
	</g>
</g>
</svg>
