<?xml version="1.0" encoding="utf-8"?>
<!-- Generator: Adobe Illustrator 16.0.0, SVG Export Plug-In . SVG Version: 6.00 Build 0)  -->
<!DOCTYPE svg PUBLIC "-//W3C//DTD SVG 1.1//EN" "http://www.w3.org/Graphics/SVG/1.1/DTD/svg11.dtd">
<svg version="1.1" id="Layer_1" xmlns="http://www.w3.org/2000/svg" xmlns:xlink="http://www.w3.org/1999/xlink" x="0px" y="0px"
	 width="100px" height="100px" viewBox="0 0 100 100" enable-background="new 0 0 100 100" xml:space="preserve">
<g>
	<path fill="#FFFFFF" d="M50,1.333C23.12,1.333,1.333,23.123,1.333,50C1.333,76.882,23.12,98.667,50,98.667S98.668,76.882,98.668,50
		C98.668,23.123,76.881,1.333,50,1.333z M71.213,79.805c-0.311-5.526-3.402-10.303-7.896-12.979
		c-3.453,1.938-7.557,3.112-11.977,3.232v9.746h-7.318V70.24c-12.535-1.756-22.173-12.285-22.173-25.019
		c0-12.737,9.638-23.27,22.173-25.025v6.899C35.35,28.776,28.81,36.252,28.81,45.222c0,8.969,6.54,16.44,15.212,18.121v-0.322
		V37.932v-6.144v-0.106c2.077-0.521,4.275-0.807,6.553-0.807c12.765,0,23.115,8.776,23.115,19.6c0,4.448-1.75,8.546-4.691,11.835
		c5.34,4.047,8.875,10.351,9.154,17.495H71.213z"/>
	<path fill="#FFFFFF" d="M51.339,37.229v27.407c8.583-0.342,15.415-6.344,15.415-13.706C66.754,43.571,59.922,37.566,51.339,37.229z
		"/>
</g>
</svg>
